<?xml version="1.0" encoding="UTF-8" standalone="no"?>
<!-- Created with Inkscape (http://www.inkscape.org/) -->

<svg
   xmlns:osb="http://www.openswatchbook.org/uri/2009/osb"
   xmlns:dc="http://purl.org/dc/elements/1.1/"
   xmlns:cc="http://creativecommons.org/ns#"
   xmlns:rdf="http://www.w3.org/1999/02/22-rdf-syntax-ns#"
   xmlns:svg="http://www.w3.org/2000/svg"
   xmlns="http://www.w3.org/2000/svg"
   xmlns:sodipodi="http://sodipodi.sourceforge.net/DTD/sodipodi-0.dtd"
   xmlns:inkscape="http://www.inkscape.org/namespaces/inkscape"
   width="43mm"
   height="59mm"
   viewBox="0 0 43 59"
   version="1.1"
   id="svg8"
   style="shape-rendering:crispEdges"
   sodipodi:docname="cartaPruebas.svg"
   inkscape:version="0.92.4 (5da689c313, 2019-01-14)"
   inkscape:export-filename="D:\Nueva carpeta3\Game-Card\Assets\Assets\Card\cartaPruebas.png"
   inkscape:export-xdpi="609.59998"
   inkscape:export-ydpi="609.59998">
  <defs
     id="defs2">
    <inkscape:perspective
       sodipodi:type="inkscape:persp3d"
       inkscape:vp_x="0 : 29.5 : 1"
       inkscape:vp_y="0 : 1000 : 0"
       inkscape:vp_z="43 : 29.5 : 1"
       inkscape:persp3d-origin="21.5 : 19.666667 : 1"
       id="perspective58" />
    <linearGradient
       id="linearGradient5998"
       osb:paint="gradient">
      <stop
         style="stop-color:#000000;stop-opacity:1;"
         offset="0"
         id="stop5994" />
      <stop
         style="stop-color:#000000;stop-opacity:0;"
         offset="1"
         id="stop5996" />
    </linearGradient>
  </defs>
  <sodipodi:namedview
     id="base"
     pagecolor="#ffffff"
     bordercolor="#666666"
     borderopacity="1.0"
     inkscape:pageopacity="0"
     inkscape:pageshadow="2"
     inkscape:zoom="1.5"
     inkscape:cx="6.6990236"
     inkscape:cy="121.02124"
     inkscape:document-units="px"
     inkscape:current-layer="layer1"
     showgrid="true"
     inkscape:pagecheckerboard="true"
     inkscape:window-width="1920"
     inkscape:window-height="1027"
     inkscape:window-x="1072"
     inkscape:window-y="842"
     inkscape:window-maximized="1">
    <inkscape:grid
       type="xygrid"
       id="grid6850" />
  </sodipodi:namedview>
  <metadata
     id="metadata5">
    <rdf:RDF>
      <cc:Work
         rdf:about="">
        <dc:format>image/svg+xml</dc:format>
        <dc:type
           rdf:resource="http://purl.org/dc/dcmitype/StillImage" />
        <dc:title></dc:title>
      </cc:Work>
    </rdf:RDF>
  </metadata>
  <g
     inkscape:label="Capa 1"
     inkscape:groupmode="layer"
     id="layer1"
     transform="translate(0,-238.00001)">
    <rect
       style="opacity:1;fill:none;fill-opacity:1;stroke-width:3.5999999;stroke-miterlimit:4;stroke-dasharray:none;paint-order:markers stroke fill"
       id="rect3737"
       width="212.42261"
       height="298.53027"
       x="3.4115434e-08"
       y="-0.018415216"
       ry="3.779758" />
    <rect
       style="opacity:1;fill:#000000;stroke-width:4.23333311;stroke-miterlimit:4;stroke-dasharray:none;paint-order:stroke fill markers"
       id="rect6922"
       width="1.3229166"
       height="1.3229166"
       x="1.3229166"
       y="240.11459"
       ry="0"
       rx="0" />
    <rect
       style="opacity:1;fill:#000000;stroke-width:4.39313745;stroke-miterlimit:4;stroke-dasharray:none;paint-order:stroke fill markers"
       id="rect6929"
       width="37.041668"
       height="1.3229166"
       x="2.6458333"
       y="238.79167"
       ry="0"
       rx="0" />
    <rect
       style="opacity:1;fill:#000000;stroke-width:4.23333311;stroke-miterlimit:4;stroke-dasharray:none;paint-order:stroke fill markers"
       id="rect6933"
       width="1.3229166"
       height="1.3229166"
       x="39.6875"
       y="240.11459"
       ry="0.66145831"
       rx="1.1641671e-06" />
    <rect
       style="opacity:1;fill:#000000;stroke-width:4.23333311;stroke-miterlimit:4;stroke-dasharray:none;paint-order:stroke fill markers"
       id="rect6957"
       width="1.3229166"
       height="1.3229166"
       x="39.6875"
       y="294.35419"
       rx="1.1641666e-06"
       ry="0.66145831" />
    <rect
       style="opacity:1;fill:#000000;stroke-width:4.23333311;stroke-miterlimit:4;stroke-dasharray:none;paint-order:stroke fill markers"
       id="rect6965"
       width="1.3229166"
       height="1.3229166"
       x="1.3229166"
       y="294.35419"
       rx="1.1641666e-06"
       ry="0.66145831" />
    <rect
       style="opacity:1;fill:#000000;stroke-width:7.62022781;stroke-miterlimit:4;stroke-dasharray:none;paint-order:stroke fill markers"
       id="rect6971"
       width="1.289508"
       height="52.916637"
       x="0.03340869"
       y="241.43752"
       rx="1.1641666e-06"
       ry="2.1432536" />
    <rect
       style="opacity:1;fill:#000000;stroke-width:4.57251978;stroke-miterlimit:4;stroke-dasharray:none;paint-order:stroke fill markers"
       id="rect7000"
       width="1.3229166"
       height="9.2604065"
       x="25.135416"
       y="286.41669"
       rx="1.1641666e-06"
       ry="0.7717005" />
    <rect
       style="opacity:1;fill:#000000;stroke-width:4.23333263;stroke-miterlimit:4;stroke-dasharray:none;paint-order:stroke fill markers"
       id="rect7002"
       width="14.552081"
       height="1.3229166"
       x="26.458334"
       y="286.41669"
       rx="1.1641665e-06"
       ry="0.66145831" />
    <rect
       style="opacity:1;fill:#000000;stroke-width:4.38191605;stroke-miterlimit:4;stroke-dasharray:none;paint-order:stroke fill markers"
       id="rect7010"
       width="39.6875"
       height="2.6458333"
       x="1.3229166"
       y="248.05209"
       rx="1.2473212e-06"
       ry="0.66145831" />
    <rect
       style="opacity:1;fill:#000000;stroke-width:4.38191605;stroke-miterlimit:4;stroke-dasharray:none;paint-order:stroke fill markers"
       id="rect7014"
       width="39.6875"
       height="2.6458333"
       x="1.3229166"
       y="265.25"
       rx="1.2473212e-06"
       ry="0.66145831" />
    <path
       style="opacity:1;fill:#f9f9f9;stroke-width:5.71428585;stroke-miterlimit:4;stroke-dasharray:none;paint-order:stroke fill markers"
       d="m 14.99401,210.4708 v -2.5 h -2.5 -2.4999998 v -47.32143 -47.32143 h 69.9999998 70 v 34.82143 34.82143 h -27.5 -27.5 v 15 15 h -40 -40 z"
       id="path7020"
       inkscape:connector-curvature="0"
       transform="matrix(0.26458333,0,0,0.26458333,0,238.00001)" />
    <text
       xml:space="preserve"
       style="font-style:normal;font-weight:normal;font-size:4.93888855px;line-height:1.25;font-family:sans-serif;letter-spacing:0px;word-spacing:0px;fill:#000000;fill-opacity:1;stroke:none;stroke-width:0.26458332"
       x="3.96875"
       y="248.05209"
       id="text7032"><tspan
         sodipodi:role="line"
         id="tspan7030"
         x="3.96875"
         y="252.558"
         style="stroke-width:0.26458332" /></text>
    <rect
       style="opacity:0;fill:#000000;stroke-width:4.23333311;stroke-miterlimit:4;stroke-dasharray:none;paint-order:stroke fill markers"
       id="rect7064"
       width="1.3229166"
       height="1.3229166"
       x="25.135416"
       y="294.35419"
       rx="1.1641666e-06"
       ry="0.66145831" />
    <rect
       style="opacity:0;fill:#000000;stroke-width:4.23333311;stroke-miterlimit:4;stroke-dasharray:none;paint-order:stroke fill markers"
       id="rect7072"
       width="1.3229166"
       height="1.3229166"
       x="25.135416"
       y="294.35419"
       rx="1.1641666e-06"
       ry="0.66145831" />
    <rect
       style="opacity:0;fill:#000000;stroke-width:4.23333311;stroke-miterlimit:4;stroke-dasharray:none;paint-order:stroke fill markers"
       id="rect7074"
       width="1.3229166"
       height="23.8125"
       x="64.822914"
       y="257.3125"
       rx="1.1641666e-06"
       ry="0.66145831" />
    <path
       style="opacity:0;fill:#000000;stroke-width:5.33333349;stroke-miterlimit:4;stroke-dasharray:none;paint-order:stroke fill markers"
       d="m 10.013058,215.19461 v -2.5 h -2.5 -2.5 V 112.86128 13.027943 h 2.5 2.5 v -2.5 -2.5000002 h 69.81873 69.818732 l 0.0979,2.4166662 0.0979,2.416667 2.41441,0.09789 2.4144,0.09789 0.0856,47.568775 c 0.0471,26.162826 0.0474,64.331279 6.6e-4,84.818779 l -0.0846,37.25 h -29.8319 -29.831892 v 15.16667 15.16666 h 25.000002 25 v -2.5 -2.5 h 2.5 2.5 v -9.83122 -9.83123 l -25.08334,-0.0876 -25.083329,-0.0876 27.416669,-0.0812 27.41666,-0.0812 v 12.31873 12.31873 l -2.41666,0.0979 -2.41667,0.0979 -0.0979,2.41666 -0.0979,2.41667 H 79.831788 10.013058 Z M 29.83582,161.56552 c 0.662352,-0.43399 0.843905,-0.83047 0.843905,-1.84293 0,-1.45157 -0.618123,-1.92248 -1.737277,-1.32352 -2.040787,1.09219 -4.242993,0.91142 -4.948154,-0.40619 -0.32056,-0.59897 -0.177099,-0.6316 2.77666,-0.6316 3.992781,0 4.398351,-0.25665 4.169491,-2.63843 -0.30012,-3.12341 -2.355853,-4.83566 -5.524544,-4.60146 -2.742892,0.20272 -4.571566,1.89806 -5.100338,4.72844 -0.573257,3.0685 0.707543,5.89644 3.197495,7.0599 1.318489,0.61608 5.177831,0.40598 6.322762,-0.34421 z m 17.140421,0.2716 c 1.367394,-0.54713 1.90795,-1.53471 1.4775,-2.69936 -0.369576,-0.99994 -0.76594,-1.0622 -2.61804,-0.41124 -1.984423,0.69747 -3.556706,0.42117 -4.17474,-0.73364 -0.320786,-0.59939 -0.17592,-0.6316 2.84037,-0.6316 2.668194,0 3.279154,-0.10076 3.8061,-0.62771 0.61472,-0.61472 0.631204,-0.59669 0.79668,0.87141 0.181944,1.6142 0.909074,2.81114 2.370654,3.90237 0.716093,0.53464 1.418,0.68726 3.16073,0.68726 2.972296,0 4.04423,-0.65522 4.04423,-2.47202 0,-1.62961 -0.542404,-1.85958 -2.423477,-1.02749 -1.749087,0.77371 -2.77182,0.56667 -3.423207,-0.69297 -0.793016,-1.53353 -0.483793,-3.63098 0.646584,-4.38575 0.630523,-0.42101 2.127806,-0.27879 3.38709,0.32172 1.146803,0.54687 1.231506,0.54687 1.63139,0 0.23198,-0.31725 0.517746,-0.57682 0.635033,-0.57682 0.11729,0 0.21409,1.1625 0.215113,2.58333 0.0027,3.50691 0.448597,4.96123 1.768597,5.76609 1.289523,0.78628 3.47217,0.84369 4.50744,0.11856 0.569253,-0.39873 0.733993,-0.79544 0.6575,-1.58334 -0.09705,-0.99963 -0.179323,-1.05628 -1.67363,-1.15243 -1.475477,-0.0949 -1.583797,-0.16632 -1.77163,-1.16755 -0.110037,-0.58655 -0.15283,-1.81604 -0.0951,-2.73222 l 0.104963,-1.66578 1.329107,-0.10817 c 1.589,-0.12932 2.170893,-0.54706 2.170893,-1.55849 0,-1.01143 -0.581893,-1.42918 -2.170893,-1.5585 -1.250347,-0.10176 -1.335653,-0.17713 -1.439557,-1.27192 -0.123526,-1.30153 -0.495036,-1.65701 -1.73955,-1.66448 -1.115166,-0.007 -1.65,0.5686 -1.65,1.77482 0,1.42122 -0.789723,1.88456 -2.29514,1.34658 -3.085433,-1.10262 -6.006486,-0.009 -7.419843,2.77908 l -0.881647,1.73892 -0.21495,-1.14577 c -0.470203,-2.50641 -2.875253,-4.06678 -5.766026,-3.74095 -3.487754,0.39312 -5.476621,3.707 -4.70468,7.839 0.317756,1.70086 1.5211,3.21904 3.11562,3.93076 1.364203,0.60893 4.208856,0.58355 5.796516,-0.0517 z m 27.37354,-0.22584 c 2.079707,-1.41544 2.49661,-2.31996 2.49661,-5.41667 0,-2.2924 -0.12145,-2.94711 -0.687263,-3.70496 -1.326613,-1.77685 -2.36233,-2.29504 -4.58718,-2.29504 -3.456117,0 -5.177887,1.78206 -5.46041,5.6516 -0.178573,2.44581 0.76208,4.58474 2.534147,5.76238 1.559086,1.03609 4.18389,1.03733 5.704096,0.003 z m 10.118017,0.29039 c 1.770067,-0.73958 2.640737,-2.10107 2.44784,-3.82773 -0.213073,-1.90723 -1.029313,-2.66574 -3.588777,-3.33497 -2.750836,-0.71926 -3.169856,-1.57188 -0.607103,-1.23534 3.79189,0.49796 3.78144,0.5003 3.895557,-0.87227 0.129256,-1.55462 -0.781707,-2.23356 -3.352884,-2.49893 -2.525173,-0.26062 -4.7379,0.72108 -5.4462,2.41628 -1.019763,2.44064 0.217584,4.31541 3.396297,5.1459 1.052567,0.275 1.973933,0.68197 2.04749,0.90437 0.260163,0.78667 -1.465543,0.83019 -3.20733,0.0809 -1.384373,-0.59555 -1.800207,-0.65563 -2.206113,-0.31876 -0.636194,0.528 -0.650124,2.46075 -0.0215,2.98247 1.226606,1.018 4.81954,1.31985 6.642716,0.55808 z m -49.121407,-4.20706 0.166667,-4.16667 1.333333,-0.16666 c 1.305557,-0.1632 1.333334,-0.19445 1.333334,-1.5 0,-1.30407 -0.0279,-1.33563 -1.27066,-1.43802 -1.62969,-0.13427 -1.458703,-0.89532 0.201153,-0.89532 1.525303,0 1.978883,-0.46108 1.843787,-1.87428 -0.10473,-1.09556 -0.151667,-1.12851 -1.75219,-1.22981 -0.904517,-0.0573 -2.004802,-0.0137 -2.445077,0.0968 -1.009378,0.25334 -2.410347,1.74084 -2.410347,2.55922 0,0.34169 -0.3,0.87812 -0.666666,1.19207 -0.806071,0.69018 -0.91781,2.68054 -0.166667,2.96878 0.404998,0.15542 0.5,0.93244 0.5,4.08954 0,4.373 0.177119,4.78329 1.998572,4.62958 l 1.168095,-0.0986 z m 46.355247,-15.34506 c 0.489653,-0.26206 0.644753,-0.70308 0.644753,-1.83333 v -1.48828 h 1.617374 c 3.845366,0 6.467613,-3.99589 5.401276,-8.2307 -0.7583,-3.01147 -2.62425,-4.40981 -5.292416,-3.9661 -0.674427,0.11216 -2.051234,0.23982 -3.059567,0.28369 l -1.833333,0.0798 -0.09007,7.33288 c -0.08106,6.59948 -0.033,7.3746 0.480377,7.75 0.69404,0.5075 1.280913,0.52734 2.131603,0.0721 z m 47.730882,-1.07161 c 0.7587,-0.57805 6.97415,-16.86828 6.72977,-17.63825 -0.23188,-0.7306 -2.19693,-0.85756 -2.76062,-0.17836 -0.2709,0.32642 -6.72195,16.75191 -6.72195,17.11525 0,0.0387 0.23572,0.30613 0.52381,0.59422 0.63108,0.63107 1.4873,0.67223 2.22899,0.10714 z m -86.052535,-2.62595 c 0.62319,-0.20677 1.320573,-0.61044 1.54974,-0.89704 0.564476,-0.70595 0.525223,-1.90416 -0.08228,-2.51167 -0.443043,-0.44305 -0.70471,-0.42663 -2.335343,0.14649 -1.6648,0.58513 -1.94522,0.59997 -3.00105,0.15882 -0.64056,-0.26765 -1.164657,-0.71928 -1.164657,-1.00364 0,-0.42688 0.497724,-0.51701 2.855247,-0.51701 3.716183,0 4.144753,-0.23738 4.144753,-2.29576 0,-3.12507 -2.33248,-5.18542 -5.597156,-4.94413 -1.867147,0.138 -3.039762,0.79338 -4.200012,2.34741 -0.711788,0.95337 -1.137322,4.44668 -0.736302,6.04447 0.310725,1.23802 2.118524,3.13657 3.317337,3.48386 1.494287,0.43289 3.92596,0.42742 5.249727,-0.0118 z m 9.469813,-0.10399 c 1.206157,-0.50396 2.488127,-2.22171 2.502667,-3.35339 0.0055,-0.42613 0.23245,-0.17369 0.62907,0.69964 0.980886,2.15985 2.399033,2.96703 5.21285,2.96703 2.97831,0 4.152006,-0.65023 4.152006,-2.30021 0,-1.5927 -0.674536,-2.05188 -2.00416,-1.36431 -2.555993,1.32176 -4.38473,0.356 -4.38473,-2.31558 0,-2.67445 1.58554,-3.54345 4.194904,-2.29913 1.408973,0.67189 2.193986,0.22901 2.193986,-1.23778 0,-1.20397 -0.69051,-1.87396 -2.407966,-2.33642 -4.084164,-1.09975 -7.546457,1.64152 -7.60352,6.02009 l -0.0152,1.16667 -0.460434,-0.84631 c -0.55248,-1.01547 -1.462656,-1.53326 -3.65388,-2.07861 -1.905376,-0.47421 -2.45646,-1.24175 -0.89156,-1.24175 0.562647,0 1.70823,0.18328 2.54574,0.40728 1.682274,0.44994 2.138224,0.16896 2.148384,-1.32394 0.0083,-1.21744 -1.08777,-2.00532 -3.147724,-2.2627 -4.287786,-0.53572 -7.312806,2.35617 -5.708943,5.4577 0.556023,1.07524 1.444727,1.59931 3.678213,2.16908 0.90129,0.22992 1.696957,0.59278 1.768147,0.80635 0.245977,0.73793 -1.448533,0.79521 -3.252033,0.10994 -1.32103,-0.50195 -1.900847,-0.58367 -2.226094,-0.31374 -0.587153,0.48729 -0.561333,2.4342 0.03889,2.93235 1.241416,1.03028 4.823583,1.31816 6.691383,0.53774 z m 45.955887,-0.29607 c 0.69394,-0.45468 0.87404,-0.8385 0.87404,-1.86267 0,-1.63687 -0.542294,-1.85963 -2.46098,-1.0109 -1.696607,0.75049 -2.901347,0.50775 -3.556604,-0.7166 -0.543673,-1.01587 -0.200026,-3.65031 0.547457,-4.19688 0.803853,-0.58779 2.282387,-0.55114 3.516767,0.0872 1.427163,0.73802 1.95336,0.42213 1.95336,-1.17264 0,-1.66922 -0.8647,-2.3229 -3.390847,-2.56335 -2.06857,-0.19689 -4.271057,0.73943 -5.407403,2.2988 -0.706307,0.96924 -1.135114,4.47176 -0.740134,6.04548 0.28668,1.14223 1.81383,2.86909 3.021857,3.41705 1.327177,0.602 4.50692,0.41859 5.642487,-0.32547 z m 14.212575,0.15798 c 0.6388,-0.33992 1.50454,-1.20242 1.92385,-1.91667 0.64772,-1.1033 0.74778,-1.68381 0.66522,-3.85946 -0.10438,-2.75075 -0.55928,-3.71892 -2.38931,-5.08524 -1.33784,-0.99884 -4.64431,-0.9683 -6.08053,0.0562 -1.54505,1.10209 -2.27601,2.86029 -2.26467,5.44726 0.0112,2.54859 0.71883,4.05312 2.45755,5.22484 1.41765,0.95535 4.02784,1.01643 5.68789,0.1331 z m -83.171869,-0.34725 c 2.703913,-1.25188 4.171651,-3.70108 4.159346,-6.94068 -0.009,-2.37415 -0.810901,-4.23937 -2.435976,-5.6662 -1.617869,-1.42051 -3.238855,-1.80432 -7.137273,-1.68994 l -3.252763,0.0954 -0.09032,6.99138 c -0.04968,3.84527 -0.01689,7.18277 0.07287,7.41667 0.2764,0.72029 7.029091,0.55958 8.684118,-0.20667 z m 39.1,0.23195 c 0.259457,-0.25946 0.4,-1.60924 0.4,-3.84158 0,-3.89807 -0.05059,-3.82944 3.073687,-4.16966 l 1.57369,-0.17136 0.09298,4.20797 0.09298,4.20796 1.105106,0.10608 c 1.93579,0.18581 2.06156,-0.14985 2.06156,-5.50214 0,-2.8443 -0.14904,-5.09292 -0.364213,-5.49497 -0.263397,-0.49216 -0.263397,-0.78136 0,-1.04475 0.200317,-0.20032 0.364213,-0.86293 0.364213,-1.47247 0,-0.89025 -0.17258,-1.17386 -0.87736,-1.44182 -0.937353,-0.35638 -2.132976,-0.13071 -2.534203,0.47833 -0.371567,0.56403 -0.302297,2.02455 0.115853,2.4427 0.204024,0.20402 0.262094,0.54709 0.129044,0.76238 -0.1742,0.28186 -0.34334,0.28999 -0.60429,0.029 -0.465197,-0.4652 -2.740447,-0.46893 -3.605597,-0.006 -0.479893,0.25683 -0.793773,0.25047 -1.12298,-0.0227 -0.251303,-0.20857 -0.954217,-0.33148 -1.562027,-0.27313 l -1.105106,0.10606 -0.09215,5.31995 c -0.05068,2.92598 -0.0179,5.51348 0.07287,5.75 0.208,0.54205 2.251906,0.56409 2.785946,0.03 z m 34.658439,-5.22234 c 0.0594,-3.53025 -0.0346,-5.60789 -0.26618,-5.88699 -0.24857,-0.29951 -0.25115,-0.49733 -0.008,-0.64733 0.19224,-0.11881 0.34952,-0.73538 0.34952,-1.37016 0,-0.90761 -0.178,-1.23524 -0.83333,-1.53383 -1.35079,-0.61546 -2.5,0.0896 -2.5,1.53383 0,0.63478 0.15041,1.2471 0.33423,1.36071 0.22343,0.13808 0.22343,0.41362 0,0.83109 -0.37723,0.70487 -0.46427,10.76054 -0.0963,11.12848 0.13085,0.13085 0.84335,0.19335 1.58333,0.13889 l 1.34542,-0.099 z m 16.30522,5.20567 c 0.14832,-0.22916 0.34467,-2.06158 0.43634,-4.07204 l 0.16667,-3.65538 1.09767,-0.31362 c 1.66923,-0.47692 1.88023,-0.0293 2.06899,4.38955 l 0.16667,3.90149 1.2994,0.1064 c 0.81421,0.0667 1.40352,-0.0578 1.57823,-0.33333 0.47086,-0.74259 0.3413,-7.83766 -0.16496,-9.03377 -0.78544,-1.85573 -1.70091,-2.41475 -3.83081,-2.33928 -1.03502,0.0367 -2.66062,0.0677 -3.61244,0.069 -1.38141,0.002 -1.80176,0.13526 -2.08333,0.6614 -0.45625,0.8525 -0.46268,9.54138 -0.008,10.39153 0.39898,0.74551 2.44566,0.9073 2.88526,0.22808 z m 30.10301,-30.25 v -5 H 79.846391 9.6797246 v 4.77778 c 0,2.62778 0.1,4.87778 0.2222224,5 0.122222,0.12222 31.697221,0.22222 70.166668,0.22222 H 150.01306 Z M 65.013058,96.444093 c 2.016717,-1.007464 2.332223,-2.137907 2.332817,-8.358357 l 6.66e-4,-5.442207 -1.083333,0.07506 c -0.595833,0.04128 -1.660303,-0.04163 -2.365487,-0.184256 -3.30674,-0.668784 -5.729543,1.583573 -5.703873,5.3026 0.02867,4.1555 2.56095,6.14358 5.996733,4.70802 1.13586,-0.474594 1.15596,-0.468797 1.15596,0.333333 0,0.448977 -0.316813,1.133137 -0.704026,1.52035 -0.596557,0.596557 -0.99091,0.680353 -2.583334,0.548943 -1.03362,-0.0853 -2.104306,-0.21461 -2.379306,-0.28736 -0.36148,-0.09563 -0.5,0.140597 -0.5,0.852697 0,0.7666 0.184753,1.03636 0.833333,1.216773 1.54822,0.430654 3.82675,0.300507 5,-0.285596 z m -12.31678,-3.591377 c 0.563717,-0.29151 0.983447,-0.362643 0.983447,-0.166667 0,0.18804 0.45,0.341894 1,0.341894 h 1 v -4.28466 c 0,-4.04998 -0.04343,-4.331517 -0.792864,-5.140174 -0.95588,-1.03141 -3.15118,-1.445156 -5.45176,-1.02749 -1.488576,0.27025 -1.595433,0.358504 -1.69539,1.40025 -0.09942,1.036137 -0.05404,1.092817 0.666667,0.832647 0.42534,-0.153547 1.656017,-0.27949 2.734833,-0.279873 1.51894,-6.67e-4 2.045384,0.13305 2.333334,0.592123 0.496046,0.79083 -0.191177,1.22623 -1.961487,1.242727 -0.733333,0.0068 -1.960477,0.29716 -2.726987,0.64517 -1.087,0.493516 -1.463636,0.886193 -1.711693,1.784593 -0.448463,1.6242 -0.138987,2.77674 1.003813,3.73834 1.157514,0.973987 3.09505,1.108713 4.618087,0.32112 z m 25.028107,0.122463 c 1.161893,-0.34811 1.288673,-0.49568 1.288673,-1.5 0,-1.283193 -0.05827,-1.309503 -1.217717,-0.5498 -0.513873,0.336704 -1.52164,0.564104 -2.49993,0.564104 -1.761446,0 -2.979213,-0.839497 -3.433723,-2.367114 -0.216817,-0.728723 -0.16792,-0.740206 3.549097,-0.833333 l 3.76894,-0.09443 -0.05532,-1.599086 c -0.06729,-1.94531 -0.792517,-3.135047 -2.293234,-3.76209 -4.158386,-1.737484 -7.729086,1.513973 -7.000226,6.374356 0.251176,1.674964 1.896723,3.656987 3.251553,3.916424 1.512893,0.2897 3.377317,0.229843 4.641887,-0.149034 z m -51.04466,-0.78057 c 0,-0.666666 -0.166667,-0.833333 -0.833334,-0.833333 h -0.833333 v -5.166667 -5.166666 h 0.833333 c 0.666667,0 0.833334,-0.166667 0.833334,-0.833334 0,-0.82353 -0.03333,-0.833333 -2.833334,-0.833333 -2.8,0 -2.833333,0.0098 -2.833333,0.833333 0,0.703704 0.155556,0.833334 1,0.833334 h 1 v 5.166666 5.166667 h -1 c -0.844444,0 -1,0.12963 -1,0.833333 0,0.82353 0.03333,0.833334 2.833333,0.833334 2.8,0 2.833334,-0.0098 2.833334,-0.833334 z m 4.666666,-2.92813 v -3.761463 l 0.968098,-0.57187 c 1.207582,-0.713337 2.490068,-0.732753 3.174759,-0.04806 0.41508,0.41508 0.52381,1.314573 0.52381,4.333333 v 3.809524 h 1 1 v -3.824774 -3.824773 l 0.983447,-0.50856 c 0.540896,-0.279707 1.34753,-0.50856 1.79252,-0.50856 1.411463,0 1.712896,0.798933 1.84256,4.883623 l 0.12009,3.783044 h 0.964026 0.964024 v -3.677374 c 0,-4.094773 -0.417094,-5.59199 -1.812527,-6.506313 -1.09898,-0.72008 -3.236343,-0.48533 -4.571977,0.502143 -0.521856,0.385827 -0.94883,0.550864 -0.94883,0.36675 0,-0.498666 -1.832421,-1.352053 -2.900113,-1.350626 -0.513271,6.66e-4 -1.42072,0.29848 -2.016553,0.661766 -0.883951,0.538954 -1.083334,0.5694 -1.083334,0.16542 0,-0.32789 -0.337731,-0.4951 -1,-0.4951 h -1 v 5.166667 5.166667 h 1 1 z m 52.333334,-0.06331 v -3.824773 l 0.983446,-0.50856 c 1.39756,-0.722707 2.55493,-0.63775 3.16432,0.232277 0.39172,0.55926 0.5189,1.62133 0.5189,4.333333 v 3.592497 h 1 1 v -3.783594 c 0,-2.080973 -0.166263,-4.260533 -0.369473,-4.84346 -0.643313,-1.845413 -2.85059,-2.513713 -5.141233,-1.556623 -0.635777,0.265647 -1.15596,0.340647 -1.15596,0.166667 0,-0.173977 -0.45,-0.316324 -1,-0.316324 h -1 v 5.166667 5.166667 h 1 1 z M 150.01306,42.860496 v -5.167444 l -70.083335,0.08411 -70.0833337,0.08411 -0.093178,4.650613 c -0.051248,2.55784 -0.018457,4.84534 0.072872,5.083334 0.1353953,0.352836 13.0905497,0.43272 70.1765127,0.43272 H 150.01306 Z M 30.619224,32.848362 c 1.69807,-0.504272 1.727167,-0.534833 1.727167,-1.814007 v -1.301093 l -1.416666,0.809992 c -1.836638,1.050114 -4.55398,1.121674 -5.91063,0.155654 -1.017753,-0.724704 -2.007105,-2.828148 -2.004178,-4.261044 0.0033,-1.62327 0.706133,-3.502529 1.670591,-4.466987 0.815956,-0.815956 1.200549,-0.942934 2.855956,-0.942934 1.4476,0 2.26481,0.206161 3.358975,0.847384 l 1.445952,0.847385 v -1.338073 -1.338073 l -1.891674,-0.549925 c -3.85198,-1.119801 -7.334435,0.05551 -8.734609,2.947882 -1.268719,2.620823 -0.827839,7.101534 0.888996,9.034964 1.554789,1.75094 4.835596,2.311608 8.01012,1.368875 z m 9.077054,0.0044 c 0.563717,-0.291509 0.983447,-0.362642 0.983447,-0.166667 0,0.188042 0.45,0.341894 1,0.341894 h 1 v -4.348485 c 0,-4.132623 -0.03929,-4.387775 -0.79148,-5.139966 -0.96322,-0.96322 -3.240037,-1.365659 -5.453145,-0.963872 -1.488576,0.27025 -1.595433,0.358504 -1.695389,1.400248 -0.09942,1.036139 -0.05404,1.092817 0.666666,0.832646 0.425341,-0.153545 1.656017,-0.279488 2.734834,-0.279872 1.51894,-5.34e-4 2.045384,0.133052 2.333334,0.592123 0.491006,0.782795 -0.190497,1.228531 -1.88886,1.235407 -1.495374,0.0061 -3.494946,0.780346 -4.111198,1.591974 -0.242124,0.318888 -0.444997,1.278963 -0.450828,2.133499 -0.0091,1.332277 0.135558,1.676687 1.014974,2.416666 1.197865,1.007937 3.112175,1.153599 4.657645,0.354405 z m 19.12285,0.30623 c 0.289997,-0.111281 0.527263,-0.553062 0.527263,-0.981736 0,-0.693337 -0.174846,-0.790626 -1.583333,-0.881004 l -1.583333,-0.101597 -0.09499,-3.416666 -0.095,-3.416667 h 1.67833 c 1.567993,0 1.678326,-0.05478 1.678326,-0.833333 0,-0.776486 -0.11239,-0.833334 -1.6475,-0.833334 h -1.6475 l -0.1025,-1.416666 c -0.09616,-1.329075 -0.16433,-1.416667 -1.1025,-1.416667 -0.93817,0 -1.006336,0.08759 -1.1025,1.416667 -0.06979,0.964569 -0.255946,1.416666 -0.583333,1.416666 -0.290667,0 -0.480833,0.329578 -0.480833,0.833334 0,0.483053 0.191803,0.833333 0.456306,0.833333 0.346564,0 0.49307,0.821704 0.60917,3.416667 0.162507,3.632131 0.53426,4.775442 1.706314,5.247673 0.863623,0.347962 2.626416,0.417754 3.367613,0.13333 z m 7.371303,-0.280661 c 0.635777,-0.265645 1.15596,-0.340645 1.15596,-0.166667 0,0.173979 0.45,0.316325 1,0.316325 h 1 v -4.141092 c 0,-3.949402 -0.03923,-4.187718 -0.847576,-5.148378 -1.00161,-1.190346 -2.94235,-1.6085 -5.397047,-1.162853 -1.46973,0.266828 -1.596413,0.367849 -1.69156,1.348895 l -0.10285,1.060467 1.194373,-0.329782 c 1.740857,-0.480674 4.20136,-0.246904 4.63206,0.440088 0.489944,0.781494 0.246024,0.931449 -2.040923,1.254707 -3.7965,0.536632 -5.237917,2.056542 -4.448647,4.690898 0.638817,2.13218 2.982454,2.908598 5.54621,1.837392 z M 85.949785,32.68611 c 1.389876,-0.847386 2.159426,-2.626175 2.159426,-4.991455 0,-4.261566 -2.487733,-6.292872 -5.940193,-4.850342 l -1.15596,0.482991 V 21.01098 18.694655 h -1 -1 v 7.148403 7.148403 l 1.583333,0.124848 c 3.62526,0.285856 4.262977,0.234609 5.353394,-0.430199 z m 9.746493,0.166652 c 0.563717,-0.291509 0.983447,-0.362642 0.983447,-0.166667 0,0.188042 0.45,0.341894 1,0.341894 h 1 v -4.348485 c 0,-4.132623 -0.03929,-4.387775 -0.79148,-5.139966 -0.96322,-0.96322 -3.240037,-1.365659 -5.453144,-0.963872 -1.488576,0.27025 -1.595433,0.358504 -1.69539,1.400248 -0.09942,1.036139 -0.05404,1.092817 0.666667,0.832646 0.42534,-0.153545 1.656017,-0.279488 2.734833,-0.279872 1.51894,-5.34e-4 2.045384,0.133052 2.333334,0.592123 0.491006,0.782795 -0.190497,1.228531 -1.88886,1.235407 -1.495374,0.0061 -3.494947,0.780346 -4.111197,1.591974 -0.242127,0.318888 -0.444997,1.278963 -0.45083,2.133499 -0.0091,1.332277 0.13556,1.676687 1.014977,2.416666 1.197863,1.007937 3.112173,1.153599 4.657643,0.354405 z M 108.39035,32.08742 c 2.04738,-2.291412 0.80249,-4.546179 -2.87729,-5.211424 -0.73334,-0.132574 -1.52084,-0.395988 -1.75,-0.585364 -0.51855,-0.428511 -0.54299,-1.47861 -0.0416,-1.788472 0.67318,-0.416047 2.84949,-0.243985 3.96732,0.313661 0.60136,0.3 1.14534,0.545455 1.20884,0.545455 0.0635,0 0.11546,-0.510039 0.11546,-1.13342 0,-1.08369 -0.0727,-1.15086 -1.65701,-1.53093 -3.32228,-0.797003 -6.00966,0.471643 -6.00966,2.837014 0,1.865163 0.48286,2.425086 2.59132,3.004887 3.0642,0.842618 3.46698,1.072274 3.34811,1.909007 -0.0779,0.548595 -0.4321,0.827324 -1.33453,1.050296 -1.14625,0.283214 -2.09068,0.06532 -4.68667,-1.081298 -0.13836,-0.06111 -0.25156,0.35863 -0.25156,0.932758 0,1.432225 1.40754,2.059879 4.29396,1.914771 1.90998,-0.09602 2.22495,-0.21625 3.08333,-1.176941 z m 10.37271,0.922996 c 1.13836,-0.316139 1.25,-0.450703 1.25,-1.506701 0,-1.156306 -0.003,-1.158245 -0.91667,-0.691145 -2.86511,1.464065 -6.08333,0.44338 -6.08333,-1.92938 0,-0.442032 0.5612,-0.521914 3.66666,-0.521914 h 3.66667 V 26.91057 c 0,-1.641932 -1.01751,-3.440384 -2.34334,-4.141857 -1.12857,-0.597106 -3.82828,-0.324738 -4.93149,0.497528 -1.47319,1.09803 -2.12517,2.552733 -2.12517,4.741712 0,2.448574 0.72718,3.782238 2.55581,4.687416 1.48329,0.734235 3.3491,0.845969 5.26086,0.315047 z M 47.679725,29.399256 V 25.77057 l 1.13371,-0.53798 c 0.62354,-0.295889 1.67354,-0.537981 2.333333,-0.537981 1.110693,0 1.199623,-0.07413 1.199623,-1 0,-0.908388 -0.100423,-1 -1.096186,-1 -0.602904,0 -1.652904,0.28383 -2.333334,0.630734 -1.213653,0.618756 -1.237146,0.618756 -1.237146,0 0,-0.478593 -0.241214,-0.630734 -1,-0.630734 h -1 v 5.166667 5.166667 h 1 1 z"
       id="path7076"
       inkscape:connector-curvature="0"
       transform="matrix(0.26458333,0,0,0.26458333,0,238.00001)" />
    <path
       style="opacity:0;fill:#ffffff;stroke-width:5.33333349;stroke-miterlimit:4;stroke-dasharray:none;paint-order:stroke fill markers"
       d="m 10.013058,215.19461 v -2.5 h -2.5 -2.5 V 112.86128 13.027943 h 2.5 2.5 v -2.5 -2.5000002 h 69.81873 69.818732 l 0.0979,2.4166662 0.0979,2.416667 2.41441,0.09789 2.4144,0.09789 0.0856,47.568775 c 0.0471,26.162826 0.0474,64.331279 6.6e-4,84.818779 l -0.0846,37.25 h -29.8319 -29.831892 v 15.16667 15.16666 h 25.000002 25 v -2.5 -2.5 h 2.5 2.5 v -9.83122 -9.83123 l -25.08334,-0.0876 -25.083329,-0.0876 27.416669,-0.0812 27.41666,-0.0812 v 12.31873 12.31873 l -2.41666,0.0979 -2.41667,0.0979 -0.0979,2.41666 -0.0979,2.41667 H 79.831788 10.013058 Z M 29.83582,161.56552 c 0.662352,-0.43399 0.843905,-0.83047 0.843905,-1.84293 0,-1.45157 -0.618123,-1.92248 -1.737277,-1.32352 -2.040787,1.09219 -4.242993,0.91142 -4.948154,-0.40619 -0.32056,-0.59897 -0.177099,-0.6316 2.77666,-0.6316 3.992781,0 4.398351,-0.25665 4.169491,-2.63843 -0.30012,-3.12341 -2.355853,-4.83566 -5.524544,-4.60146 -2.742892,0.20272 -4.571566,1.89806 -5.100338,4.72844 -0.573257,3.0685 0.707543,5.89644 3.197495,7.0599 1.318489,0.61608 5.177831,0.40598 6.322762,-0.34421 z m 17.140421,0.2716 c 1.367394,-0.54713 1.90795,-1.53471 1.4775,-2.69936 -0.369576,-0.99994 -0.76594,-1.0622 -2.61804,-0.41124 -1.984423,0.69747 -3.556706,0.42117 -4.17474,-0.73364 -0.320786,-0.59939 -0.17592,-0.6316 2.84037,-0.6316 2.668194,0 3.279154,-0.10076 3.8061,-0.62771 0.61472,-0.61472 0.631204,-0.59669 0.79668,0.87141 0.181944,1.6142 0.909074,2.81114 2.370654,3.90237 0.716093,0.53464 1.418,0.68726 3.16073,0.68726 2.972296,0 4.04423,-0.65522 4.04423,-2.47202 0,-1.62961 -0.542404,-1.85958 -2.423477,-1.02749 -1.749087,0.77371 -2.77182,0.56667 -3.423207,-0.69297 -0.793016,-1.53353 -0.483793,-3.63098 0.646584,-4.38575 0.630523,-0.42101 2.127806,-0.27879 3.38709,0.32172 1.146803,0.54687 1.231506,0.54687 1.63139,0 0.23198,-0.31725 0.517746,-0.57682 0.635033,-0.57682 0.11729,0 0.21409,1.1625 0.215113,2.58333 0.0027,3.50691 0.448597,4.96123 1.768597,5.76609 1.289523,0.78628 3.47217,0.84369 4.50744,0.11856 0.569253,-0.39873 0.733993,-0.79544 0.6575,-1.58334 -0.09705,-0.99963 -0.179323,-1.05628 -1.67363,-1.15243 -1.475477,-0.0949 -1.583797,-0.16632 -1.77163,-1.16755 -0.110037,-0.58655 -0.15283,-1.81604 -0.0951,-2.73222 l 0.104963,-1.66578 1.329107,-0.10817 c 1.589,-0.12932 2.170893,-0.54706 2.170893,-1.55849 0,-1.01143 -0.581893,-1.42918 -2.170893,-1.5585 -1.250347,-0.10176 -1.335653,-0.17713 -1.439557,-1.27192 -0.123526,-1.30153 -0.495036,-1.65701 -1.73955,-1.66448 -1.115166,-0.007 -1.65,0.5686 -1.65,1.77482 0,1.42122 -0.789723,1.88456 -2.29514,1.34658 -3.085433,-1.10262 -6.006486,-0.009 -7.419843,2.77908 l -0.881647,1.73892 -0.21495,-1.14577 c -0.470203,-2.50641 -2.875253,-4.06678 -5.766026,-3.74095 -3.487754,0.39312 -5.476621,3.707 -4.70468,7.839 0.317756,1.70086 1.5211,3.21904 3.11562,3.93076 1.364203,0.60893 4.208856,0.58355 5.796516,-0.0517 z m 27.37354,-0.22584 c 2.079707,-1.41544 2.49661,-2.31996 2.49661,-5.41667 0,-2.2924 -0.12145,-2.94711 -0.687263,-3.70496 -1.326613,-1.77685 -2.36233,-2.29504 -4.58718,-2.29504 -3.456117,0 -5.177887,1.78206 -5.46041,5.6516 -0.178573,2.44581 0.76208,4.58474 2.534147,5.76238 1.559086,1.03609 4.18389,1.03733 5.704096,0.003 z m 10.118017,0.29039 c 1.770067,-0.73958 2.640737,-2.10107 2.44784,-3.82773 -0.213073,-1.90723 -1.029313,-2.66574 -3.588777,-3.33497 -2.750836,-0.71926 -3.169856,-1.57188 -0.607103,-1.23534 3.79189,0.49796 3.78144,0.5003 3.895557,-0.87227 0.129256,-1.55462 -0.781707,-2.23356 -3.352884,-2.49893 -2.525173,-0.26062 -4.7379,0.72108 -5.4462,2.41628 -1.019763,2.44064 0.217584,4.31541 3.396297,5.1459 1.052567,0.275 1.973933,0.68197 2.04749,0.90437 0.260163,0.78667 -1.465543,0.83019 -3.20733,0.0809 -1.384373,-0.59555 -1.800207,-0.65563 -2.206113,-0.31876 -0.636194,0.528 -0.650124,2.46075 -0.0215,2.98247 1.226606,1.018 4.81954,1.31985 6.642716,0.55808 z m -49.121407,-4.20706 0.166667,-4.16667 1.333333,-0.16666 c 1.305557,-0.1632 1.333334,-0.19445 1.333334,-1.5 0,-1.30407 -0.0279,-1.33563 -1.27066,-1.43802 -1.62969,-0.13427 -1.458703,-0.89532 0.201153,-0.89532 1.525303,0 1.978883,-0.46108 1.843787,-1.87428 -0.10473,-1.09556 -0.151667,-1.12851 -1.75219,-1.22981 -0.904517,-0.0573 -2.004802,-0.0137 -2.445077,0.0968 -1.009378,0.25334 -2.410347,1.74084 -2.410347,2.55922 0,0.34169 -0.3,0.87812 -0.666666,1.19207 -0.806071,0.69018 -0.91781,2.68054 -0.166667,2.96878 0.404998,0.15542 0.5,0.93244 0.5,4.08954 0,4.373 0.177119,4.78329 1.998572,4.62958 l 1.168095,-0.0986 z m 46.355247,-15.34506 c 0.489653,-0.26206 0.644753,-0.70308 0.644753,-1.83333 v -1.48828 h 1.617374 c 3.845366,0 6.467613,-3.99589 5.401276,-8.2307 -0.7583,-3.01147 -2.62425,-4.40981 -5.292416,-3.9661 -0.674427,0.11216 -2.051234,0.23982 -3.059567,0.28369 l -1.833333,0.0798 -0.09007,7.33288 c -0.08106,6.59948 -0.033,7.3746 0.480377,7.75 0.69404,0.5075 1.280913,0.52734 2.131603,0.0721 z m 47.730882,-1.07161 c 0.7587,-0.57805 6.97415,-16.86828 6.72977,-17.63825 -0.23188,-0.7306 -2.19693,-0.85756 -2.76062,-0.17836 -0.2709,0.32642 -6.72195,16.75191 -6.72195,17.11525 0,0.0387 0.23572,0.30613 0.52381,0.59422 0.63108,0.63107 1.4873,0.67223 2.22899,0.10714 z m -86.052535,-2.62595 c 0.62319,-0.20677 1.320573,-0.61044 1.54974,-0.89704 0.564476,-0.70595 0.525223,-1.90416 -0.08228,-2.51167 -0.443043,-0.44305 -0.70471,-0.42663 -2.335343,0.14649 -1.6648,0.58513 -1.94522,0.59997 -3.00105,0.15882 -0.64056,-0.26765 -1.164657,-0.71928 -1.164657,-1.00364 0,-0.42688 0.497724,-0.51701 2.855247,-0.51701 3.716183,0 4.144753,-0.23738 4.144753,-2.29576 0,-3.12507 -2.33248,-5.18542 -5.597156,-4.94413 -1.867147,0.138 -3.039762,0.79338 -4.200012,2.34741 -0.711788,0.95337 -1.137322,4.44668 -0.736302,6.04447 0.310725,1.23802 2.118524,3.13657 3.317337,3.48386 1.494287,0.43289 3.92596,0.42742 5.249727,-0.0118 z m 9.469813,-0.10399 c 1.206157,-0.50396 2.488127,-2.22171 2.502667,-3.35339 0.0055,-0.42613 0.23245,-0.17369 0.62907,0.69964 0.980886,2.15985 2.399033,2.96703 5.21285,2.96703 2.97831,0 4.152006,-0.65023 4.152006,-2.30021 0,-1.5927 -0.674536,-2.05188 -2.00416,-1.36431 -2.555993,1.32176 -4.38473,0.356 -4.38473,-2.31558 0,-2.67445 1.58554,-3.54345 4.194904,-2.29913 1.408973,0.67189 2.193986,0.22901 2.193986,-1.23778 0,-1.20397 -0.69051,-1.87396 -2.407966,-2.33642 -4.084164,-1.09975 -7.546457,1.64152 -7.60352,6.02009 l -0.0152,1.16667 -0.460434,-0.84631 c -0.55248,-1.01547 -1.462656,-1.53326 -3.65388,-2.07861 -1.905376,-0.47421 -2.45646,-1.24175 -0.89156,-1.24175 0.562647,0 1.70823,0.18328 2.54574,0.40728 1.682274,0.44994 2.138224,0.16896 2.148384,-1.32394 0.0083,-1.21744 -1.08777,-2.00532 -3.147724,-2.2627 -4.287786,-0.53572 -7.312806,2.35617 -5.708943,5.4577 0.556023,1.07524 1.444727,1.59931 3.678213,2.16908 0.90129,0.22992 1.696957,0.59278 1.768147,0.80635 0.245977,0.73793 -1.448533,0.79521 -3.252033,0.10994 -1.32103,-0.50195 -1.900847,-0.58367 -2.226094,-0.31374 -0.587153,0.48729 -0.561333,2.4342 0.03889,2.93235 1.241416,1.03028 4.823583,1.31816 6.691383,0.53774 z m 45.955887,-0.29607 c 0.69394,-0.45468 0.87404,-0.8385 0.87404,-1.86267 0,-1.63687 -0.542294,-1.85963 -2.46098,-1.0109 -1.696607,0.75049 -2.901347,0.50775 -3.556604,-0.7166 -0.543673,-1.01587 -0.200026,-3.65031 0.547457,-4.19688 0.803853,-0.58779 2.282387,-0.55114 3.516767,0.0872 1.427163,0.73802 1.95336,0.42213 1.95336,-1.17264 0,-1.66922 -0.8647,-2.3229 -3.390847,-2.56335 -2.06857,-0.19689 -4.271057,0.73943 -5.407403,2.2988 -0.706307,0.96924 -1.135114,4.47176 -0.740134,6.04548 0.28668,1.14223 1.81383,2.86909 3.021857,3.41705 1.327177,0.602 4.50692,0.41859 5.642487,-0.32547 z m 14.212575,0.15798 c 0.6388,-0.33992 1.50454,-1.20242 1.92385,-1.91667 0.64772,-1.1033 0.74778,-1.68381 0.66522,-3.85946 -0.10438,-2.75075 -0.55928,-3.71892 -2.38931,-5.08524 -1.33784,-0.99884 -4.64431,-0.9683 -6.08053,0.0562 -1.54505,1.10209 -2.27601,2.86029 -2.26467,5.44726 0.0112,2.54859 0.71883,4.05312 2.45755,5.22484 1.41765,0.95535 4.02784,1.01643 5.68789,0.1331 z m -83.171869,-0.34725 c 2.703913,-1.25188 4.171651,-3.70108 4.159346,-6.94068 -0.009,-2.37415 -0.810901,-4.23937 -2.435976,-5.6662 -1.617869,-1.42051 -3.238855,-1.80432 -7.137273,-1.68994 l -3.252763,0.0954 -0.09032,6.99138 c -0.04968,3.84527 -0.01689,7.18277 0.07287,7.41667 0.2764,0.72029 7.029091,0.55958 8.684118,-0.20667 z m 39.1,0.23195 c 0.259457,-0.25946 0.4,-1.60924 0.4,-3.84158 0,-3.89807 -0.05059,-3.82944 3.073687,-4.16966 l 1.57369,-0.17136 0.09298,4.20797 0.09298,4.20796 1.105106,0.10608 c 1.93579,0.18581 2.06156,-0.14985 2.06156,-5.50214 0,-2.8443 -0.14904,-5.09292 -0.364213,-5.49497 -0.263397,-0.49216 -0.263397,-0.78136 0,-1.04475 0.200317,-0.20032 0.364213,-0.86293 0.364213,-1.47247 0,-0.89025 -0.17258,-1.17386 -0.87736,-1.44182 -0.937353,-0.35638 -2.132976,-0.13071 -2.534203,0.47833 -0.371567,0.56403 -0.302297,2.02455 0.115853,2.4427 0.204024,0.20402 0.262094,0.54709 0.129044,0.76238 -0.1742,0.28186 -0.34334,0.28999 -0.60429,0.029 -0.465197,-0.4652 -2.740447,-0.46893 -3.605597,-0.006 -0.479893,0.25683 -0.793773,0.25047 -1.12298,-0.0227 -0.251303,-0.20857 -0.954217,-0.33148 -1.562027,-0.27313 l -1.105106,0.10606 -0.09215,5.31995 c -0.05068,2.92598 -0.0179,5.51348 0.07287,5.75 0.208,0.54205 2.251906,0.56409 2.785946,0.03 z m 34.658439,-5.22234 c 0.0594,-3.53025 -0.0346,-5.60789 -0.26618,-5.88699 -0.24857,-0.29951 -0.25115,-0.49733 -0.008,-0.64733 0.19224,-0.11881 0.34952,-0.73538 0.34952,-1.37016 0,-0.90761 -0.178,-1.23524 -0.83333,-1.53383 -1.35079,-0.61546 -2.5,0.0896 -2.5,1.53383 0,0.63478 0.15041,1.2471 0.33423,1.36071 0.22343,0.13808 0.22343,0.41362 0,0.83109 -0.37723,0.70487 -0.46427,10.76054 -0.0963,11.12848 0.13085,0.13085 0.84335,0.19335 1.58333,0.13889 l 1.34542,-0.099 z m 16.30522,5.20567 c 0.14832,-0.22916 0.34467,-2.06158 0.43634,-4.07204 l 0.16667,-3.65538 1.09767,-0.31362 c 1.66923,-0.47692 1.88023,-0.0293 2.06899,4.38955 l 0.16667,3.90149 1.2994,0.1064 c 0.81421,0.0667 1.40352,-0.0578 1.57823,-0.33333 0.47086,-0.74259 0.3413,-7.83766 -0.16496,-9.03377 -0.78544,-1.85573 -1.70091,-2.41475 -3.83081,-2.33928 -1.03502,0.0367 -2.66062,0.0677 -3.61244,0.069 -1.38141,0.002 -1.80176,0.13526 -2.08333,0.6614 -0.45625,0.8525 -0.46268,9.54138 -0.008,10.39153 0.39898,0.74551 2.44566,0.9073 2.88526,0.22808 z m 30.10301,-30.25 v -5 H 79.846391 9.6797246 v 4.77778 c 0,2.62778 0.1,4.87778 0.2222224,5 0.122222,0.12222 31.697221,0.22222 70.166668,0.22222 H 150.01306 Z M 65.013058,96.444093 c 2.016717,-1.007464 2.332223,-2.137907 2.332817,-8.358357 l 6.66e-4,-5.442207 -1.083333,0.07506 c -0.595833,0.04128 -1.660303,-0.04163 -2.365487,-0.184256 -3.30674,-0.668784 -5.729543,1.583573 -5.703873,5.3026 0.02867,4.1555 2.56095,6.14358 5.996733,4.70802 1.13586,-0.474594 1.15596,-0.468797 1.15596,0.333333 0,0.448977 -0.316813,1.133137 -0.704026,1.52035 -0.596557,0.596557 -0.99091,0.680353 -2.583334,0.548943 -1.03362,-0.0853 -2.104306,-0.21461 -2.379306,-0.28736 -0.36148,-0.09563 -0.5,0.140597 -0.5,0.852697 0,0.7666 0.184753,1.03636 0.833333,1.216773 1.54822,0.430654 3.82675,0.300507 5,-0.285596 z m -12.31678,-3.591377 c 0.563717,-0.29151 0.983447,-0.362643 0.983447,-0.166667 0,0.18804 0.45,0.341894 1,0.341894 h 1 v -4.28466 c 0,-4.04998 -0.04343,-4.331517 -0.792864,-5.140174 -0.95588,-1.03141 -3.15118,-1.445156 -5.45176,-1.02749 -1.488576,0.27025 -1.595433,0.358504 -1.69539,1.40025 -0.09942,1.036137 -0.05404,1.092817 0.666667,0.832647 0.42534,-0.153547 1.656017,-0.27949 2.734833,-0.279873 1.51894,-6.67e-4 2.045384,0.13305 2.333334,0.592123 0.496046,0.79083 -0.191177,1.22623 -1.961487,1.242727 -0.733333,0.0068 -1.960477,0.29716 -2.726987,0.64517 -1.087,0.493516 -1.463636,0.886193 -1.711693,1.784593 -0.448463,1.6242 -0.138987,2.77674 1.003813,3.73834 1.157514,0.973987 3.09505,1.108713 4.618087,0.32112 z m 25.028107,0.122463 c 1.161893,-0.34811 1.288673,-0.49568 1.288673,-1.5 0,-1.283193 -0.05827,-1.309503 -1.217717,-0.5498 -0.513873,0.336704 -1.52164,0.564104 -2.49993,0.564104 -1.761446,0 -2.979213,-0.839497 -3.433723,-2.367114 -0.216817,-0.728723 -0.16792,-0.740206 3.549097,-0.833333 l 3.76894,-0.09443 -0.05532,-1.599086 c -0.06729,-1.94531 -0.792517,-3.135047 -2.293234,-3.76209 -4.158386,-1.737484 -7.729086,1.513973 -7.000226,6.374356 0.251176,1.674964 1.896723,3.656987 3.251553,3.916424 1.512893,0.2897 3.377317,0.229843 4.641887,-0.149034 z m -51.04466,-0.78057 c 0,-0.666666 -0.166667,-0.833333 -0.833334,-0.833333 h -0.833333 v -5.166667 -5.166666 h 0.833333 c 0.666667,0 0.833334,-0.166667 0.833334,-0.833334 0,-0.82353 -0.03333,-0.833333 -2.833334,-0.833333 -2.8,0 -2.833333,0.0098 -2.833333,0.833333 0,0.703704 0.155556,0.833334 1,0.833334 h 1 v 5.166666 5.166667 h -1 c -0.844444,0 -1,0.12963 -1,0.833333 0,0.82353 0.03333,0.833334 2.833333,0.833334 2.8,0 2.833334,-0.0098 2.833334,-0.833334 z m 4.666666,-2.92813 v -3.761463 l 0.968098,-0.57187 c 1.207582,-0.713337 2.490068,-0.732753 3.174759,-0.04806 0.41508,0.41508 0.52381,1.314573 0.52381,4.333333 v 3.809524 h 1 1 v -3.824774 -3.824773 l 0.983447,-0.50856 c 0.540896,-0.279707 1.34753,-0.50856 1.79252,-0.50856 1.411463,0 1.712896,0.798933 1.84256,4.883623 l 0.12009,3.783044 h 0.964026 0.964024 v -3.677374 c 0,-4.094773 -0.417094,-5.59199 -1.812527,-6.506313 -1.09898,-0.72008 -3.236343,-0.48533 -4.571977,0.502143 -0.521856,0.385827 -0.94883,0.550864 -0.94883,0.36675 0,-0.498666 -1.832421,-1.352053 -2.900113,-1.350626 -0.513271,6.66e-4 -1.42072,0.29848 -2.016553,0.661766 -0.883951,0.538954 -1.083334,0.5694 -1.083334,0.16542 0,-0.32789 -0.337731,-0.4951 -1,-0.4951 h -1 v 5.166667 5.166667 h 1 1 z m 52.333334,-0.06331 v -3.824773 l 0.983446,-0.50856 c 1.39756,-0.722707 2.55493,-0.63775 3.16432,0.232277 0.39172,0.55926 0.5189,1.62133 0.5189,4.333333 v 3.592497 h 1 1 v -3.783594 c 0,-2.080973 -0.166263,-4.260533 -0.369473,-4.84346 -0.643313,-1.845413 -2.85059,-2.513713 -5.141233,-1.556623 -0.635777,0.265647 -1.15596,0.340647 -1.15596,0.166667 0,-0.173977 -0.45,-0.316324 -1,-0.316324 h -1 v 5.166667 5.166667 h 1 1 z M 150.01306,42.860496 v -5.167444 l -70.083335,0.08411 -70.0833337,0.08411 -0.093178,4.650613 c -0.051248,2.55784 -0.018457,4.84534 0.072872,5.083334 0.1353953,0.352836 13.0905497,0.43272 70.1765127,0.43272 H 150.01306 Z M 30.619224,32.848362 c 1.69807,-0.504272 1.727167,-0.534833 1.727167,-1.814007 v -1.301093 l -1.416666,0.809992 c -1.836638,1.050114 -4.55398,1.121674 -5.91063,0.155654 -1.017753,-0.724704 -2.007105,-2.828148 -2.004178,-4.261044 0.0033,-1.62327 0.706133,-3.502529 1.670591,-4.466987 0.815956,-0.815956 1.200549,-0.942934 2.855956,-0.942934 1.4476,0 2.26481,0.206161 3.358975,0.847384 l 1.445952,0.847385 v -1.338073 -1.338073 l -1.891674,-0.549925 c -3.85198,-1.119801 -7.334435,0.05551 -8.734609,2.947882 -1.268719,2.620823 -0.827839,7.101534 0.888996,9.034964 1.554789,1.75094 4.835596,2.311608 8.01012,1.368875 z m 9.077054,0.0044 c 0.563717,-0.291509 0.983447,-0.362642 0.983447,-0.166667 0,0.188042 0.45,0.341894 1,0.341894 h 1 v -4.348485 c 0,-4.132623 -0.03929,-4.387775 -0.79148,-5.139966 -0.96322,-0.96322 -3.240037,-1.365659 -5.453145,-0.963872 -1.488576,0.27025 -1.595433,0.358504 -1.695389,1.400248 -0.09942,1.036139 -0.05404,1.092817 0.666666,0.832646 0.425341,-0.153545 1.656017,-0.279488 2.734834,-0.279872 1.51894,-5.34e-4 2.045384,0.133052 2.333334,0.592123 0.491006,0.782795 -0.190497,1.228531 -1.88886,1.235407 -1.495374,0.0061 -3.494946,0.780346 -4.111198,1.591974 -0.242124,0.318888 -0.444997,1.278963 -0.450828,2.133499 -0.0091,1.332277 0.135558,1.676687 1.014974,2.416666 1.197865,1.007937 3.112175,1.153599 4.657645,0.354405 z m 19.12285,0.30623 c 0.289997,-0.111281 0.527263,-0.553062 0.527263,-0.981736 0,-0.693337 -0.174846,-0.790626 -1.583333,-0.881004 l -1.583333,-0.101597 -0.09499,-3.416666 -0.095,-3.416667 h 1.67833 c 1.567993,0 1.678326,-0.05478 1.678326,-0.833333 0,-0.776486 -0.11239,-0.833334 -1.6475,-0.833334 h -1.6475 l -0.1025,-1.416666 c -0.09616,-1.329075 -0.16433,-1.416667 -1.1025,-1.416667 -0.93817,0 -1.006336,0.08759 -1.1025,1.416667 -0.06979,0.964569 -0.255946,1.416666 -0.583333,1.416666 -0.290667,0 -0.480833,0.329578 -0.480833,0.833334 0,0.483053 0.191803,0.833333 0.456306,0.833333 0.346564,0 0.49307,0.821704 0.60917,3.416667 0.162507,3.632131 0.53426,4.775442 1.706314,5.247673 0.863623,0.347962 2.626416,0.417754 3.367613,0.13333 z m 7.371303,-0.280661 c 0.635777,-0.265645 1.15596,-0.340645 1.15596,-0.166667 0,0.173979 0.45,0.316325 1,0.316325 h 1 v -4.141092 c 0,-3.949402 -0.03923,-4.187718 -0.847576,-5.148378 -1.00161,-1.190346 -2.94235,-1.6085 -5.397047,-1.162853 -1.46973,0.266828 -1.596413,0.367849 -1.69156,1.348895 l -0.10285,1.060467 1.194373,-0.329782 c 1.740857,-0.480674 4.20136,-0.246904 4.63206,0.440088 0.489944,0.781494 0.246024,0.931449 -2.040923,1.254707 -3.7965,0.536632 -5.237917,2.056542 -4.448647,4.690898 0.638817,2.13218 2.982454,2.908598 5.54621,1.837392 z M 85.949785,32.68611 c 1.389876,-0.847386 2.159426,-2.626175 2.159426,-4.991455 0,-4.261566 -2.487733,-6.292872 -5.940193,-4.850342 l -1.15596,0.482991 V 21.01098 18.694655 h -1 -1 v 7.148403 7.148403 l 1.583333,0.124848 c 3.62526,0.285856 4.262977,0.234609 5.353394,-0.430199 z m 9.746493,0.166652 c 0.563717,-0.291509 0.983447,-0.362642 0.983447,-0.166667 0,0.188042 0.45,0.341894 1,0.341894 h 1 v -4.348485 c 0,-4.132623 -0.03929,-4.387775 -0.79148,-5.139966 -0.96322,-0.96322 -3.240037,-1.365659 -5.453144,-0.963872 -1.488576,0.27025 -1.595433,0.358504 -1.69539,1.400248 -0.09942,1.036139 -0.05404,1.092817 0.666667,0.832646 0.42534,-0.153545 1.656017,-0.279488 2.734833,-0.279872 1.51894,-5.34e-4 2.045384,0.133052 2.333334,0.592123 0.491006,0.782795 -0.190497,1.228531 -1.88886,1.235407 -1.495374,0.0061 -3.494947,0.780346 -4.111197,1.591974 -0.242127,0.318888 -0.444997,1.278963 -0.45083,2.133499 -0.0091,1.332277 0.13556,1.676687 1.014977,2.416666 1.197863,1.007937 3.112173,1.153599 4.657643,0.354405 z M 108.39035,32.08742 c 2.04738,-2.291412 0.80249,-4.546179 -2.87729,-5.211424 -0.73334,-0.132574 -1.52084,-0.395988 -1.75,-0.585364 -0.51855,-0.428511 -0.54299,-1.47861 -0.0416,-1.788472 0.67318,-0.416047 2.84949,-0.243985 3.96732,0.313661 0.60136,0.3 1.14534,0.545455 1.20884,0.545455 0.0635,0 0.11546,-0.510039 0.11546,-1.13342 0,-1.08369 -0.0727,-1.15086 -1.65701,-1.53093 -3.32228,-0.797003 -6.00966,0.471643 -6.00966,2.837014 0,1.865163 0.48286,2.425086 2.59132,3.004887 3.0642,0.842618 3.46698,1.072274 3.34811,1.909007 -0.0779,0.548595 -0.4321,0.827324 -1.33453,1.050296 -1.14625,0.283214 -2.09068,0.06532 -4.68667,-1.081298 -0.13836,-0.06111 -0.25156,0.35863 -0.25156,0.932758 0,1.432225 1.40754,2.059879 4.29396,1.914771 1.90998,-0.09602 2.22495,-0.21625 3.08333,-1.176941 z m 10.37271,0.922996 c 1.13836,-0.316139 1.25,-0.450703 1.25,-1.506701 0,-1.156306 -0.003,-1.158245 -0.91667,-0.691145 -2.86511,1.464065 -6.08333,0.44338 -6.08333,-1.92938 0,-0.442032 0.5612,-0.521914 3.66666,-0.521914 h 3.66667 V 26.91057 c 0,-1.641932 -1.01751,-3.440384 -2.34334,-4.141857 -1.12857,-0.597106 -3.82828,-0.324738 -4.93149,0.497528 -1.47319,1.09803 -2.12517,2.552733 -2.12517,4.741712 0,2.448574 0.72718,3.782238 2.55581,4.687416 1.48329,0.734235 3.3491,0.845969 5.26086,0.315047 z M 47.679725,29.399256 V 25.77057 l 1.13371,-0.53798 c 0.62354,-0.295889 1.67354,-0.537981 2.333333,-0.537981 1.110693,0 1.199623,-0.07413 1.199623,-1 0,-0.908388 -0.100423,-1 -1.096186,-1 -0.602904,0 -1.652904,0.28383 -2.333334,0.630734 -1.213653,0.618756 -1.237146,0.618756 -1.237146,0 0,-0.478593 -0.241214,-0.630734 -1,-0.630734 h -1 v 5.166667 5.166667 h 1 1 z"
       id="path7078"
       inkscape:connector-curvature="0"
       transform="matrix(0.26458333,0,0,0.26458333,0,238.00001)" />
    <rect
       style="opacity:0;fill:none;stroke-width:4.23333311;stroke-miterlimit:4;stroke-dasharray:none;paint-order:stroke fill markers;fill-opacity:1;stroke:none"
       id="rect7096"
       width="21.166666"
       height="1.3229166"
       x="5.2916665"
       y="294.35419"
       rx="1.1641666e-06"
       ry="0.66145831" />
    <rect
       style="opacity:0;fill:none;fill-opacity:1;stroke:none;stroke-width:4.23333311;stroke-miterlimit:4;stroke-dasharray:none;paint-order:stroke fill markers"
       id="rect7106"
       width="11.90625"
       height="1.3229166"
       x="11.90625"
       y="294.35419"
       rx="1.1641666e-06"
       ry="0.66145831" />
    <rect
       style="opacity:0;fill:none;fill-opacity:1;stroke:#000000;stroke-width:4.23333311;stroke-miterlimit:4;stroke-dasharray:none;paint-order:stroke fill markers;stroke-opacity:1"
       id="rect7108"
       width="5.2916665"
       height="1.3229166"
       x="29.104166"
       y="294.35419"
       rx="1.1641666e-06"
       ry="0.66145831" />
    <rect
       style="opacity:1;fill:none;fill-opacity:1;stroke:none;stroke-width:2.11666667;stroke-miterlimit:4;stroke-dasharray:none;stroke-opacity:1;paint-order:stroke fill markers"
       id="rect7118"
       width="11.90625"
       height="1.3229166"
       x="3.96875"
       y="294.35419"
       rx="1.1641666e-06"
       ry="0.66145831" />
    <path
       style="opacity:1;fill:#ffffff;fill-opacity:1;stroke:none;stroke-width:1.88561809;stroke-miterlimit:4;stroke-dasharray:none;stroke-opacity:1;paint-order:stroke fill markers"
       d="m 9.9962829,215.31109 v -2.47488 H 7.5214092 5.0465354 V 162.98518 113.13416 H 79.999854 154.95317 v 34.88393 34.88393 H 124.90113 94.849097 v 17.44197 17.44197 H 52.42269 9.9962829 Z M 28.359893,162.14275 c 0.649303,-0.13925 1.455155,-0.46919 1.790781,-0.7332 0.534514,-0.42044 0.601505,-0.6273 0.539895,-1.66708 -0.09513,-1.60544 -0.480986,-1.82547 -2.031532,-1.15844 -0.708714,0.30488 -1.680654,0.51207 -2.402198,0.51207 -1.031259,0 -1.31687,-0.105 -1.916372,-0.7045 -0.387474,-0.38748 -0.63822,-0.81174 -0.557214,-0.94281 0.08738,-0.14139 1.428951,-0.23831 3.298518,-0.23831 3.764633,0 3.894608,-0.0695 3.886837,-2.07923 -0.0083,-2.15453 -1.196304,-4.09838 -2.897521,-4.74114 -1.15025,-0.4346 -3.665719,-0.30788 -4.801346,0.24187 -2.539804,1.2295 -3.767819,4.64742 -2.811469,7.82513 0.930364,3.09136 3.998851,4.52263 7.901621,3.68564 z m 17.67767,0 c 0.649303,-0.13925 1.455155,-0.46919 1.790781,-0.7332 0.534513,-0.42044 0.601505,-0.6273 0.539895,-1.66708 -0.09513,-1.60544 -0.480986,-1.82547 -2.031532,-1.15844 -0.708715,0.30488 -1.680654,0.51207 -2.402198,0.51207 -1.031258,0 -1.316871,-0.105 -1.916372,-0.7045 -0.387474,-0.38748 -0.638221,-0.81174 -0.557215,-0.94281 0.08703,-0.14082 1.419265,-0.23979 3.25643,-0.24192 3.217824,-0.004 3.458652,-0.053 3.861277,-0.79015 0.197855,-0.36223 0.269431,-0.22166 0.404121,0.79368 0.534374,4.02832 3.789437,6.03627 7.836845,4.83432 1.614021,-0.47931 2.012982,-0.97108 1.922065,-2.36918 -0.100041,-1.53841 -0.543367,-1.78839 -1.955155,-1.10249 -2.38819,1.16027 -4.091181,0.44905 -4.307171,-1.79881 -0.149351,-1.55431 0.281426,-2.78254 1.129794,-3.22125 0.910202,-0.47068 1.189973,-0.44647 2.83315,0.24513 1.099,0.46256 1.516094,0.53922 1.878514,0.34526 0.256223,-0.13713 0.465859,-0.36049 0.465859,-0.49637 0,-0.13588 0.132582,-0.20319 0.294628,-0.14959 0.208462,0.069 0.329094,1.03496 0.412479,3.30308 0.101382,2.75763 0.185764,3.29644 0.603819,3.85562 0.988842,1.32265 1.644764,1.62274 3.524317,1.61243 2.105215,-0.0115 2.707229,-0.40424 2.707229,-1.76591 0,-1.14766 -0.459341,-1.5021 -1.863641,-1.43802 -1.584838,0.0723 -1.70211,-0.1495 -1.621483,-3.06707 l 0.06744,-2.44046 1.293565,-0.0732 c 1.522752,-0.0862 2.125587,-0.52803 2.12051,-1.55433 -0.0058,-1.18256 -0.307156,-1.42493 -1.932257,-1.55433 l -1.481818,-0.11798 -0.07166,-1.11514 c -0.07953,-1.23756 -0.62933,-1.83114 -1.696109,-1.83114 -1.075525,0 -1.649915,0.61064 -1.649915,1.75403 0,0.83564 -0.10963,1.09202 -0.606047,1.41728 -0.558294,0.36581 -0.691605,0.36794 -1.691904,0.0271 -2.942529,-1.00262 -5.912773,-0.0992 -7.306917,2.22255 -0.421317,0.70163 -0.766032,1.51278 -0.766032,1.80254 0,0.28977 -0.106066,0.5924 -0.235702,0.67252 -0.138673,0.0857 -0.237833,-0.1754 -0.240878,-0.63427 -0.01065,-1.60602 -1.404949,-3.6187 -2.897521,-4.18263 -1.150251,-0.4346 -3.66572,-0.30788 -4.801347,0.24187 -1.908618,0.92394 -3.139986,3.12982 -3.136945,5.61954 0.0054,4.45926 3.439155,6.91806 8.227098,5.89123 z m 27.386382,-0.0151 c 2.355116,-0.78852 3.616839,-2.89388 3.582462,-5.97785 -0.03237,-2.9037 -1.160275,-4.8703 -3.251274,-5.66885 -1.640981,-0.6267 -4.066227,-0.40296 -5.340578,0.49268 -1.914468,1.34554 -2.772207,4.32071 -2.105085,7.30174 0.335075,1.49727 1.58675,3.0555 2.952777,3.67597 1.085699,0.49314 2.976201,0.57323 4.161698,0.17631 z m 11.54819,-0.46004 c 0.726269,-0.39742 1.19744,-0.88399 1.568457,-1.61974 0.656287,-1.30146 0.665145,-1.93868 0.04476,-3.22023 -0.545054,-1.12594 -1.560492,-1.72514 -3.757068,-2.21704 -1.584098,-0.35474 -1.999542,-0.63225 -1.623962,-1.0848 0.383146,-0.46166 1.808868,-0.38845 3.004989,0.1543 1.790788,0.81258 2.39021,0.53347 2.39021,-1.11299 0,-1.20761 -0.50342,-1.8122 -1.811389,-2.17541 -1.421296,-0.39467 -3.833129,-0.3011 -4.915877,0.19072 -3.393252,1.54134 -3.11514,5.95538 0.432947,6.87152 2.573737,0.66455 3.081581,0.84275 3.171641,1.11293 0.142453,0.42736 -1.107808,0.81964 -2.049356,0.64301 -0.449046,-0.0842 -1.214904,-0.35645 -1.701905,-0.6049 -1.125433,-0.57415 -1.765629,-0.57286 -2.074455,0.004 -0.378691,0.70759 -0.288234,2.02996 0.178271,2.60607 1.01335,1.25143 5.198126,1.51646 7.14274,0.45236 z m -49.916157,0.0683 c 0.315864,-0.34903 0.395555,-1.11247 0.44901,-4.30157 l 0.06499,-3.87724 1.060234,-0.0753 c 1.282043,-0.0911 1.886044,-0.58224 1.886044,-1.53363 0,-1.04254 -0.595226,-1.57302 -1.765014,-1.57302 -1.124033,0 -1.408966,-0.17289 -1.032507,-0.62649 0.164397,-0.19809 0.77349,-0.31632 1.629591,-0.31632 1.342199,0 1.371825,-0.0144 1.62813,-0.791 0.328526,-0.99545 0.0091,-1.93094 -0.741326,-2.1712 -0.923142,-0.29555 -3.143766,-0.17125 -3.896724,0.21812 -0.990355,0.51214 -1.90262,1.6604 -2.082991,2.62186 -0.08917,0.47535 -0.383471,0.95881 -0.716485,1.17701 -0.810979,0.53137 -0.797751,2.04591 0.02411,2.76051 0.583339,0.50721 0.589255,0.5508 0.589255,4.3421 0,3.16732 0.06407,3.89381 0.37039,4.20014 0.512464,0.51246 2.050336,0.47971 2.533293,-0.0539 z m 46.869861,-19.52905 c 0.331774,-0.30025 0.431038,-0.73636 0.431038,-1.89373 v -1.50366 l 1.125565,0.14932 c 2.312115,0.30671 4.409968,-0.8946 5.492445,-3.14519 0.730498,-1.5188 0.755025,-4.62035 0.04887,-6.18028 -1.008443,-2.22769 -2.233826,-2.94623 -4.640304,-2.72096 -0.920162,0.0861 -2.344268,0.14415 -3.16468,0.12893 -0.840747,-0.0156 -1.637855,0.0937 -1.826692,0.25038 -0.276095,0.22914 -0.335037,1.53475 -0.335037,7.42128 0,7.96376 -0.01608,7.884 1.589267,7.884 0.466667,0 1.042455,-0.17554 1.279528,-0.39009 z m 47.541451,-0.9652 c 0.31218,-0.26088 1.67325,-3.4776 3.70319,-8.75203 3.62026,-9.4066 3.62899,-9.45597 1.67173,-9.45597 -0.68319,0 -1.15259,0.13867 -1.39629,0.41248 -0.5089,0.57179 -6.54132,16.33951 -6.54132,17.09789 0,1.0682 1.59852,1.50336 2.56269,0.69763 z m -85.586658,-2.77179 c 1.09748,-0.44185 1.316987,-0.87494 1.192765,-2.35333 -0.108407,-1.29014 -0.583142,-1.49225 -2.036522,-0.86702 -0.708714,0.30488 -1.680654,0.51206 -2.402197,0.51206 -1.031259,0 -1.316871,-0.10499 -1.916373,-0.7045 -0.387473,-0.38747 -0.63822,-0.81173 -0.557214,-0.94281 0.0877,-0.1419 1.457493,-0.23831 3.386066,-0.23831 2.20478,0 3.329079,-0.0903 3.521622,-0.28284 0.440978,-0.44098 0.338344,-2.9926 -0.164016,-4.07765 -0.508065,-1.09737 -1.512508,-2.10346 -2.455838,-2.45988 -0.931219,-0.35184 -3.565143,-0.31228 -4.470569,0.0671 -1.186427,0.49718 -2.188451,1.46451 -2.782235,2.6859 -0.719179,1.47933 -0.78445,4.68378 -0.121254,5.95295 0.799768,1.53053 2.001539,2.54243 3.675567,3.09486 0.906812,0.29924 4.006995,0.0656 5.130198,-0.38657 z m 8.564638,0.23002 c 1.817946,-0.64141 2.806488,-1.94278 2.804965,-3.69264 -0.0017,-2.00802 -1.305272,-3.1651 -4.209361,-3.73644 -1.487213,-0.29259 -2.068102,-0.77717 -1.422032,-1.18626 0.537033,-0.34005 1.417471,-0.25191 2.985739,0.29889 1.393192,0.48931 1.501384,0.49605 1.880261,0.11717 0.546014,-0.54601 0.527846,-2.1048 -0.03174,-2.72313 -0.943702,-1.04278 -4.75526,-1.27075 -6.582073,-0.39368 -1.844071,0.88537 -2.649123,3.39835 -1.637376,5.1111 0.490748,0.83077 2.235169,1.71368 4.126642,2.08863 1.075205,0.21314 1.355288,0.36042 1.355288,0.71268 0,0.72487 -1.316468,0.8258 -2.96064,0.22698 -2.023699,-0.73706 -2.498748,-0.72179 -2.893877,0.093 -0.261679,0.53961 -0.274418,0.86359 -0.06186,1.57306 0.267583,0.89311 0.467186,1.02436 2.61654,1.72045 0.774047,0.25068 3.062006,0.13155 4.029519,-0.20981 z m 11.585824,-0.29527 c 0.938364,-0.41508 1.113416,-0.60305 1.252626,-1.34511 0.180619,-0.96277 -0.155175,-1.93785 -0.745338,-2.16432 -0.209332,-0.0803 -0.849482,0.0817 -1.422557,0.36017 -1.410973,0.68551 -2.774784,0.66783 -3.487823,-0.0452 -1.055253,-1.05526 -0.987423,-3.76645 0.119291,-4.76801 0.680506,-0.61585 2.025314,-0.565 3.515391,0.13291 l 1.232899,0.57746 0.445365,-0.55 c 0.533865,-0.6593 0.578281,-1.85304 0.09464,-2.54354 -0.822021,-1.1736 -4.535159,-1.64852 -6.366789,-0.81433 -1.212406,0.55217 -2.609799,2.10537 -2.92928,3.25588 -0.408161,1.46988 -0.30551,4.29997 0.195098,5.37891 0.591226,1.27425 1.86297,2.43472 3.114954,2.84242 1.350579,0.4398 3.592956,0.29701 4.981522,-0.31723 z m 33.814969,0.28652 c 1.384036,-0.45439 1.952781,-1.07947 1.952781,-2.14621 0,-1.71773 -0.708778,-2.10516 -2.295462,-1.25475 -1.156612,0.61991 -2.738657,0.62273 -3.355396,0.006 -0.615376,-0.61537 -0.792308,-1.40472 -0.663372,-2.9595 0.191569,-2.31008 1.525104,-2.96821 3.853968,-1.90202 0.736293,0.33709 1.424388,0.61289 1.529099,0.61289 0.932464,0 1.296339,-2.42489 0.475362,-3.16786 -1.083285,-0.98036 -3.816368,-1.36733 -5.690776,-0.80575 -1.206638,0.36152 -2.478726,1.44884 -3.089913,2.64112 -0.602229,1.1748 -0.833142,3.84289 -0.453925,5.2449 0.879655,3.25217 4.24854,4.87669 7.737634,3.73119 z m 14.815227,-0.0759 c 4.15252,-1.88603 4.20048,-9.24766 0.074,-11.35286 -1.21779,-0.62127 -3.67261,-0.62515 -4.87299,-0.008 -1.84683,0.94997 -2.84219,2.56753 -3.04129,4.9424 -0.24751,2.95222 0.96027,5.44922 3.10758,6.42472 1.25202,0.56878 3.47278,0.56571 4.73274,-0.007 z m -82.866017,-0.5367 c 2.654719,-1.2336 4.01387,-3.33293 4.190831,-6.47311 0.151929,-2.69599 -0.327537,-4.04202 -2.048326,-5.75039 -1.692675,-1.68045 -2.923971,-2.09444 -6.785222,-2.28132 -2.448154,-0.1185 -2.964267,-0.0806 -3.476608,0.25507 l -0.601659,0.39422 v 6.93095 c 0,6.1955 0.04231,6.97325 0.398718,7.32966 0.347057,0.34706 0.828045,0.38567 3.71231,0.29802 2.935235,-0.0892 3.461617,-0.16949 4.609956,-0.7031 z m 38.991888,0.37675 c 0.301263,-0.30126 0.370389,-0.98311 0.370389,-3.65338 0,-4.22092 -0.0032,-4.21694 3.59446,-4.53906 l 1.119585,-0.10025 v 3.96115 c 0,4.48138 0.07739,4.70193 1.649916,4.70193 1.625038,0 1.649916,-0.0897 1.649916,-5.94976 0,-4.51624 -0.05188,-5.2663 -0.390085,-5.64002 -0.214545,-0.23707 -0.284603,-0.43103 -0.155683,-0.43103 0.304701,0 0.78147,-1.05327 0.78147,-1.72642 0,-1.0423 -0.631274,-1.57342 -1.870123,-1.57342 -0.761709,0 -1.241156,0.12637 -1.454417,0.38333 -0.452395,0.5451 -0.39914,2.08223 0.0909,2.62372 0.388809,0.42963 0.387301,0.47164 -0.03049,0.84973 -0.392289,0.35502 -0.471577,0.35913 -0.737875,0.0383 -0.384575,-0.46339 -2.331666,-0.47697 -3.416172,-0.0238 -0.695082,0.29042 -0.84092,0.29042 -1.081949,0 -0.38226,-0.4606 -2.207236,-0.43694 -2.678898,0.0347 -0.313854,0.31385 -0.370389,1.14749 -0.370389,5.46152 0,4.40658 0.05245,5.14908 0.390085,5.52216 0.48882,0.54014 2.023218,0.57679 2.539357,0.0607 z m 34.651699,-0.15346 c 0.30333,-0.43305 0.36692,-1.36717 0.36692,-5.38936 0,-4.44261 -0.0394,-4.91557 -0.45297,-5.44138 -0.44682,-0.56804 -0.44682,-0.57969 0,-0.85874 0.57929,-0.36177 0.63431,-2.1852 0.0826,-2.73693 -0.49125,-0.49124 -2.3035,-0.49124 -2.79475,0 -0.55173,0.55173 -0.49671,2.37516 0.0826,2.73693 0.44682,0.27905 0.44682,0.2907 0,0.85874 -0.4136,0.52581 -0.45297,0.99877 -0.45297,5.44138 0,5.69172 0.0662,5.91321 1.76777,5.91321 0.80123,0 1.1165,-0.11789 1.40084,-0.52385 z m 16.17447,0.27986 c 0.42027,-0.22492 0.45591,-0.52611 0.45591,-3.85256 0,-4.14261 0.0906,-4.35058 1.98832,-4.56448 0.98728,-0.11128 1.08218,-0.0739 1.30593,0.51462 0.1327,0.34905 0.24128,2.13081 0.24128,3.95948 0,3.81944 0.14655,4.18693 1.66961,4.18693 1.61031,0 1.66772,-0.1883 1.58527,-5.19977 -0.081,-4.92459 -0.14228,-5.13218 -1.86234,-6.31082 -0.72819,-0.49898 -0.96853,-0.53638 -2.57105,-0.40006 -0.97227,0.0827 -2.44194,0.13855 -3.26593,0.12408 -2.43468,-0.0428 -2.39092,-0.14818 -2.39092,5.76025 0,5.66903 0.0925,6.02632 1.56092,6.02632 0.4549,0 1.03225,-0.1098 1.283,-0.24399 z"
       id="path7158"
       inkscape:connector-curvature="0"
       transform="matrix(0.26458333,0,0,0.26458333,0,238.00001)" />
    <path
       style="opacity:1;fill:#ffffff;fill-opacity:1;stroke:none;stroke-width:1.88561809;stroke-miterlimit:4;stroke-dasharray:none;stroke-opacity:1;paint-order:stroke fill markers"
       d="M 5.0047253,75.5219 V 48.180438 H 79.958044 154.91136 V 75.5219 102.86336 H 79.958044 5.0047253 Z"
       id="path7172"
       inkscape:connector-curvature="0"
       transform="matrix(0.26458333,0,0,0.26458333,0,238.00001)" />
    <path
       style="opacity:1;fill:#cd87de;fill-opacity:1;stroke:none;stroke-width:1.88561809;stroke-miterlimit:4;stroke-dasharray:none;stroke-opacity:1;paint-order:stroke fill markers"
       d="m 99.992736,203.03682 v -14.84924 h 27.459314 27.45931 v 12.37437 12.37437 h -2.47487 -2.47487 v 2.47487 2.47488 H 124.97718 99.992736 Z"
       id="path7176"
       inkscape:connector-curvature="0"
       transform="matrix(0.26458333,0,0,0.26458333,0,238.00001)" />
    <path
       style="opacity:1;fill:#ffffff;fill-opacity:1;stroke:none;stroke-width:1.88561809;stroke-miterlimit:4;stroke-dasharray:none;stroke-opacity:1;paint-order:stroke fill markers"
       d="M 5.0047253,25.43517 V 13.060801 H 7.5974502 10.190175 V 10.585928 8.1110539 h 69.88572 69.885725 v 2.4748741 2.474873 h 2.47487 2.47487 V 25.43517 37.809539 H 79.958044 5.0047253 Z"
       id="path7178"
       inkscape:connector-curvature="0"
       transform="matrix(0.26458333,0,0,0.26458333,0,238.00001)" />
    <rect
       style="opacity:1;fill:#000000;fill-opacity:1;stroke:none;stroke-width:2.11666656;stroke-miterlimit:4;stroke-dasharray:none;stroke-opacity:1;paint-order:stroke fill markers"
       id="rect7182"
       width="1.3229166"
       height="52.916656"
       x="41.010418"
       y="241.43752"
       rx="1.1641666e-06"
       ry="0.66145825" />
    <rect
       style="fill:#000000;stroke-width:0.26458332"
       id="rect56"
       width="37.041668"
       height="1.3229166"
       x="2.6458333"
       y="295.67709"
       rx="1.1641666e-06"
       ry="0.66145831" />
  </g>
</svg>
